<svg width="56" height="56" viewBox="0 0 56 56" fill="none" xmlns="http://www.w3.org/2000/svg">
<path d="M54.8333 53.6667H51.3333V26.8333C52.4927 26.0895 53.4297 25.0466 54.0458 23.8145C54.6618 22.5825 54.9339 21.2071 54.8333 19.8333C54.8239 19.6518 54.7804 19.4737 54.705 19.3083C48.0783 6.04333 49 8.575 49 5.83333C49 4.28624 48.3854 2.80251 47.2915 1.70854C46.1975 0.614582 44.7138 0 43.1667 0L12.8333 0C11.2862 0 9.80251 0.614582 8.70854 1.70854C7.61458 2.80251 7 4.28624 7 5.83333V7.88667C1.03833 19.8333 1.16667 19.3783 1.16667 19.8333C1.0636 21.2074 1.33458 22.5838 1.95081 23.8163C2.56705 25.0487 3.50555 26.0913 4.66667 26.8333V53.6667H1.16667C0.857247 53.6667 0.560501 53.7896 0.341709 54.0084C0.122916 54.2272 0 54.5239 0 54.8333C0 55.1427 0.122916 55.4395 0.341709 55.6583C0.560501 55.8771 0.857247 56 1.16667 56H54.8333C55.1427 56 55.4395 55.8771 55.6583 55.6583C55.8771 55.4395 56 55.1427 56 54.8333C56 54.5239 55.8771 54.2272 55.6583 54.0084C55.4395 53.7896 55.1427 53.6667 54.8333 53.6667ZM47.25 25.6667C45.953 25.6747 44.699 25.2023 43.7296 24.3407C42.7602 23.479 42.1441 22.289 42 21H52.5C52.3559 22.289 51.7398 23.479 50.7704 24.3407C49.801 25.2023 48.547 25.6747 47.25 25.6667ZM18.4567 9.33333H26.8333V18.6667H16.59L18.4567 9.33333ZM37.5433 9.33333L39.41 18.6667H29.1667V9.33333H37.5433ZM26.8333 21C26.8333 22.3924 26.2802 23.7277 25.2956 24.7123C24.3111 25.6969 22.9757 26.25 21.5833 26.25C20.1909 26.25 18.8556 25.6969 17.871 24.7123C16.8865 23.7277 16.3333 22.3924 16.3333 21H26.8333ZM39.6667 21C39.6667 22.3924 39.1135 23.7277 38.129 24.7123C37.1444 25.6969 35.8091 26.25 34.4167 26.25C33.0243 26.25 31.6889 25.6969 30.7044 24.7123C29.7198 23.7277 29.1667 22.3924 29.1667 21H39.6667ZM41.825 18.6667L39.9583 9.33333H47.145L51.8117 18.6667H41.825ZM9.33333 5.83333C9.33333 4.90508 9.70208 4.01484 10.3585 3.35846C11.0148 2.70208 11.9051 2.33333 12.8333 2.33333H43.1667C44.0949 2.33333 44.9852 2.70208 45.6415 3.35846C46.2979 4.01484 46.6667 4.90508 46.6667 5.83333V7H9.33333V5.83333ZM8.89 9.33333H16.0767L14.21 18.6667H4.22333L8.89 9.33333ZM14 21C14 22.3924 13.4469 23.7277 12.4623 24.7123C11.4777 25.6969 10.1424 26.25 8.75 26.25C7.35761 26.25 6.02225 25.6969 5.03769 24.7123C4.05312 23.7277 3.5 22.3924 3.5 21H14ZM7 27.79C8.53433 28.1632 10.147 28.0466 11.6117 27.4565C13.0764 26.8665 14.3195 25.8326 15.1667 24.5C15.8477 25.5872 16.7938 26.4835 17.9162 27.1049C19.0386 27.7262 20.3004 28.0521 21.5833 28.0521C22.8662 28.0521 24.1281 27.7262 25.2505 27.1049C26.3729 26.4835 27.319 25.5872 28 24.5C28.681 25.5872 29.6271 26.4835 30.7495 27.1049C31.8719 27.7262 33.1338 28.0521 34.4167 28.0521C35.6996 28.0521 36.9614 27.7262 38.0838 27.1049C39.2062 26.4835 40.1523 25.5872 40.8333 24.5C41.6711 25.8445 42.9106 26.8913 44.3763 27.4922C45.842 28.0932 47.4596 28.2177 49 27.8483V53.6667H46.6667V33.8333C46.6667 33.5239 46.5438 33.2272 46.325 33.0084C46.1062 32.7896 45.8094 32.6667 45.5 32.6667H33.8333C33.5239 32.6667 33.2272 32.7896 33.0084 33.0084C32.7896 33.2272 32.6667 33.5239 32.6667 33.8333V53.6667H7V27.79ZM35 53.6667V35H44.3333V53.6667H35Z" fill="white"/>
</svg>
