<svg width="49" height="53" viewBox="0 0 49 53" fill="none" xmlns="http://www.w3.org/2000/svg">
<path d="M5.47856 43.5636H12.0062C12.2947 43.5636 12.5714 43.4489 12.7754 43.2449C12.9795 43.0409 13.0941 42.7642 13.0941 42.4756C13.0941 42.1871 12.9795 41.9104 12.7754 41.7063C12.5714 41.5023 12.2947 41.3877 12.0062 41.3877H5.47856C5.19002 41.3877 4.9133 41.5023 4.70927 41.7063C4.50525 41.9104 4.39062 42.1871 4.39062 42.4756C4.39062 42.7642 4.50525 43.0409 4.70927 43.2449C4.9133 43.4489 5.19002 43.5636 5.47856 43.5636Z" fill="white"/>
<path d="M14.182 45.7397H5.47856C5.19002 45.7397 4.9133 45.8544 4.70927 46.0584C4.50525 46.2624 4.39062 46.5391 4.39062 46.8277C4.39062 47.1162 4.50525 47.3929 4.70927 47.597C4.9133 47.801 5.19002 47.9156 5.47856 47.9156H14.182C14.4706 47.9156 14.7473 47.801 14.9513 47.597C15.1553 47.3929 15.27 47.1162 15.27 46.8277C15.27 46.5391 15.1553 46.2624 14.9513 46.0584C14.7473 45.8544 14.4706 45.7397 14.182 45.7397Z" fill="white"/>
<path d="M48.8542 40.8438C48.059 39.4907 46.9966 38.3136 45.7319 37.3842C45.7319 14.9075 45.7319 16.213 45.6122 15.8757C37.3548 -0.660846 37.9749 0.0463101 37.0284 0.0463101C6.56628 0.0463101 8.21994 -0.247432 7.77389 0.644673C-0.298578 16.7787 0.0386821 15.9737 0.0386821 16.3653C-0.0483526 19.2918 0.0386821 6.32369 0.0386821 51.1792C0.0386821 51.4677 0.153303 51.7444 0.35733 51.9485C0.561357 52.1525 0.838077 52.2671 1.12662 52.2671H44.6439C44.9325 52.2671 45.2092 52.1525 45.4132 51.9485C45.6173 51.7444 45.7319 51.4677 45.7319 51.1792V45.3914C46.9966 44.462 48.059 43.2849 48.8542 41.9317C48.9497 41.7664 49 41.5787 49 41.3878C49 41.1968 48.9497 41.0092 48.8542 40.8438ZM42.8815 15.2774H29.3367L28.4011 2.22218H36.3539L42.8815 15.2774ZM22.8853 26.0262C20.4048 24.7859 21.1881 24.8512 18.5335 25.7324V17.4532H27.237V25.7324C24.5607 24.8403 25.3549 24.7968 22.8853 26.0262ZM26.2252 2.22218L27.1609 15.2774H18.6967L20.568 2.22218H26.2252ZM9.41667 2.22218H18.3704L16.4991 15.2774H2.88907L9.41667 2.22218ZM43.556 50.0912H2.21455V17.4532H16.3577V27.2446C16.3556 27.4034 16.3884 27.5607 16.4536 27.7055C16.5188 27.8503 16.6149 27.979 16.7352 28.0827C16.8554 28.1864 16.9969 28.2625 17.1497 28.3056C17.3025 28.3488 17.4629 28.358 17.6197 28.3326C17.9134 28.3326 17.1084 28.5393 20.6224 27.3643C23.3096 28.7133 22.5154 28.6807 25.1482 27.3643C28.1835 28.3761 28.0856 28.3652 28.3249 28.3652C28.5857 28.3686 28.839 28.2781 29.0387 28.1104C29.2384 27.9427 29.3712 27.7088 29.4129 27.4513C29.4129 27.1467 29.4129 28.6046 29.4129 17.4859H43.556V36.1113C40.752 34.7576 37.5455 34.4921 34.5571 35.3664C31.5687 36.2406 29.0108 38.1923 27.3784 40.8438C26.1491 42.9 34.45 50.9507 43.556 46.6642V50.0912ZM29.6087 41.3878C30.5847 40.046 31.8643 38.9541 33.3429 38.2012C34.8214 37.4484 36.4571 37.0559 38.1163 37.0559C39.7756 37.0559 41.4113 37.4484 42.8898 38.2012C44.3684 38.9541 45.648 40.046 46.624 41.3878C45.648 42.7296 44.3684 43.8215 42.8898 44.5743C41.4113 45.3272 39.7756 45.7196 38.1163 45.7196C36.4571 45.7196 34.8214 45.3272 33.3429 44.5743C31.8643 43.8215 30.5847 42.7296 29.6087 41.3878Z" fill="white"/>
<path d="M38.1163 43.5636C39.318 43.5636 40.2922 42.5895 40.2922 41.3878C40.2922 40.1861 39.318 39.2119 38.1163 39.2119C36.9146 39.2119 35.9404 40.1861 35.9404 41.3878C35.9404 42.5895 36.9146 43.5636 38.1163 43.5636Z" fill="white"/>
</svg>
