<svg width="38" height="37" viewBox="0 0 38 37" fill="none" xmlns="http://www.w3.org/2000/svg">
<g clip-path="url(#clip0)">
<path d="M22.2107 36.7592C22.0584 36.7843 21.9055 36.8074 21.7521 36.8286C21.9055 36.8074 22.0584 36.7843 22.2107 36.7592Z" fill="black"/>
<path d="M22.5765 36.6959C22.5037 36.7095 22.4308 36.7219 22.358 36.7346C22.4308 36.7219 22.5037 36.7095 22.5765 36.6959Z" fill="black"/>
<path d="M21.3436 36.88C21.1654 36.9003 20.986 36.9184 20.806 36.9336C20.986 36.9184 21.1654 36.9003 21.3436 36.88Z" fill="black"/>
<path d="M21.6948 36.8365C21.6091 36.8481 21.5229 36.8588 21.437 36.869C21.5229 36.8588 21.6091 36.8481 21.6948 36.8365Z" fill="black"/>
<path d="M23.0742 36.5961C23.01 36.6099 22.9455 36.6237 22.8811 36.637C22.9455 36.6237 23.01 36.6099 23.0742 36.5961Z" fill="black"/>
<path d="M24.3095 36.2855C24.2576 36.3005 24.2057 36.3146 24.1538 36.3293C24.2057 36.3146 24.2576 36.3005 24.3095 36.2855Z" fill="black"/>
<path d="M23.936 36.3888C23.8796 36.4038 23.823 36.419 23.7664 36.4334C23.823 36.419 23.8796 36.404 23.936 36.3888Z" fill="black"/>
<path d="M23.4472 36.5125C23.3875 36.5266 23.3272 36.5398 23.267 36.5534C23.3272 36.5398 23.3875 36.5266 23.4472 36.5125Z" fill="black"/>
<path d="M20.8001 36.9342C20.7039 36.9424 20.6076 36.9497 20.5111 36.9562C20.6076 36.9497 20.7039 36.9424 20.8001 36.9342Z" fill="black"/>
<path d="M37.5465 18.5C37.5465 8.28429 29.359 0 19.2626 0C9.16626 0 0.97876 8.28429 0.97876 18.5C0.97876 28.7157 9.16626 37 19.2626 37C19.37 37 19.4769 36.9977 19.584 36.9958V22.5943H15.6558V17.9622H19.584V14.5536C19.584 10.6005 21.9691 8.44887 25.4542 8.44887C27.1231 8.44887 28.5577 8.57477 28.9759 8.63094V12.7625H26.5727C24.6767 12.7625 24.3095 13.6743 24.3095 15.0121V17.9622H28.8431L28.2522 22.5943H24.3095V36.2852C31.9519 34.0684 37.5465 26.9444 37.5465 18.5Z" fill="white"/>
<path d="M20.4706 36.9587C20.2804 36.9712 20.0892 36.981 19.8976 36.9875C20.0892 36.981 20.2804 36.9712 20.4706 36.9587Z" fill="black"/>
<path d="M19.8878 36.9882C19.7868 36.9915 19.6855 36.9941 19.5842 36.9958C19.6855 36.9941 19.7868 36.9915 19.8878 36.9882Z" fill="black"/>
</g>
<defs>
<clipPath id="clip0">
<path d="M0.97876 0H37.5465V37H0.97876V0Z" fill="white"/>
</clipPath>
</defs>
</svg>
