<svg width="226" height="29" viewBox="0 0 226 29" fill="none" xmlns="http://www.w3.org/2000/svg">
<path d="M27.3456 0.189139V28.2109H23.4241V10.0948L23.2291 9.90567C23.2005 10.0521 23.1512 10.1936 23.0829 10.326C20.1482 13.9642 17.2135 17.6023 14.2788 21.2405C13.8191 21.8149 13.4987 21.5837 13.1435 21.1354C10.2088 17.4645 7.26951 13.796 4.32555 10.1299C4.26045 10.0662 4.19059 10.0076 4.11659 9.95472V28.2179H0.202148V0C0.488495 0.212882 0.758576 0.447052 1.01011 0.700544C5.1428 5.53896 9.26852 10.382 13.3873 15.2298L13.847 15.7272C18.3117 10.5011 22.658 5.21904 27.0809 0.0560341L27.3456 0.189139Z" fill="white"/>
<path d="M50.3657 28.6105C42.1955 28.6105 36.0662 22.4737 36.0801 14.3124C36.094 6.15104 42.2443 0.0633131 50.4284 0.0703185C58.6125 0.077324 64.6583 6.20008 64.6444 14.5716C64.6374 22.5368 58.4593 28.6105 50.3657 28.6105ZM40.4194 14.5996C40.4682 15.076 40.4891 15.8256 40.6284 16.5471C41.3806 20.288 43.4144 23.0341 47.0781 24.2531C50.7418 25.472 54.2593 24.8976 57.1568 22.1515C59.8663 19.5875 60.6394 16.2879 60.2145 12.6661C60.069 11.2789 59.6328 9.93845 58.9347 8.73315C58.2365 7.52785 57.2923 6.48505 56.1643 5.67353C55.0362 4.862 53.75 4.30016 52.3903 4.02504C51.0307 3.74992 49.6285 3.76779 48.2762 4.07744C43.5468 5.09323 40.4264 9.16338 40.4264 14.5996H40.4194Z" fill="white"/>
<path d="M73.6504 28.2321V0.539615C73.72 0.497582 73.7618 0.441546 73.8036 0.448551C77.5439 0.448551 81.2912 0.336461 85.0176 0.609673C91.5927 1.08604 96.3152 5.57653 97.2415 12.1056C98.0634 17.8781 96.0157 23.3143 90.9311 26.2496C88.6798 27.5256 86.1458 28.2121 83.5619 28.2461C80.3788 28.3232 77.1957 28.2461 74.0126 28.2461C73.9151 28.2671 73.8176 28.2461 73.6504 28.2321ZM77.927 24.7294C80.5947 24.5472 83.1858 24.6033 85.6863 24.1549C89.6495 23.4544 92.15 20.6522 92.7629 16.6941C92.9647 15.3823 92.9998 14.0499 92.8674 12.7291C92.5261 9.30341 90.9171 6.67637 87.7131 5.21924C84.5091 3.76211 81.2425 4.24548 77.927 4.18944V24.7294Z" fill="white"/>
<path d="M198.739 4.44098L195.458 6.47255L194.956 5.77201C194.418 4.98293 193.652 4.37994 192.76 4.04521C191.869 3.71049 190.897 3.66034 189.976 3.90157C189.362 3.97894 188.787 4.24629 188.33 4.6667C187.873 5.0871 187.558 5.63978 187.427 6.24837C187.227 6.87687 187.227 7.55268 187.428 8.1809C187.63 8.80911 188.021 9.35819 188.548 9.75109C189.438 10.3505 190.369 10.8843 191.335 11.3483C193.306 12.4061 195.402 13.2748 197.248 14.5148C201.469 17.359 200.988 23.2646 198.773 25.7235C197.449 27.207 195.635 28.1576 193.668 28.3996C189.969 28.932 186.473 28.4626 183.617 25.7795C182.786 24.8978 182.013 23.9617 181.305 22.9774L184.899 20.9808C185.324 21.5342 185.7 22.0877 186.132 22.578C187.063 23.6243 188.289 24.3599 189.647 24.6866C191.005 25.0133 192.429 24.9156 193.731 24.4065C194.364 24.195 194.927 23.8126 195.359 23.3009C195.791 22.7893 196.075 22.1682 196.18 21.5053C196.285 20.8425 196.207 20.1634 195.954 19.5421C195.702 18.9209 195.284 18.3813 194.748 17.9825C193.772 17.2888 192.734 16.6884 191.648 16.1891C189.914 15.2714 188.082 14.5288 186.438 13.478C183.715 11.7336 182.865 9.03655 183.311 5.93314C183.45 4.80371 183.891 3.73325 184.586 2.83536C185.281 1.93747 186.205 1.24561 187.26 0.833172C191.362 -0.995247 196.273 0.370826 198.488 3.9436C198.537 4.0767 198.613 4.2168 198.739 4.44098Z" fill="white"/>
<path d="M102.2 28.2736C103.795 24.6939 105.328 21.2682 106.874 17.7655C109.4 12.1191 111.931 6.47507 114.466 0.833356C114.629 0.576662 114.823 0.341345 115.044 0.132812C115.24 0.347066 115.413 0.581931 115.559 0.833356C119.622 9.68356 123.676 18.5361 127.721 27.391C127.839 27.6432 127.944 27.9024 128.09 28.2526C126.697 28.2526 125.304 28.2526 124.001 28.2526C123.785 28.2526 123.514 27.8673 123.395 27.6081C121.717 23.9303 120.045 20.2594 118.415 16.5606C117.189 13.7584 116.026 10.9562 114.842 8.19606C114.905 8.14703 114.842 8.19606 114.842 8.19606C113.755 12.3363 111.673 16.0632 110.015 19.9652C108.922 22.5502 107.717 25.0932 106.595 27.6712C106.546 27.8635 106.427 28.0307 106.263 28.1406C106.098 28.2506 105.899 28.2954 105.704 28.2667C104.547 28.2456 103.433 28.2736 102.2 28.2736Z" fill="white"/>
<path d="M153.074 0.427558C154.572 0.427558 155.951 0.427558 157.323 0.427558C157.464 0.44465 157.6 0.493113 157.721 0.569439C157.841 0.645764 157.943 0.74805 158.019 0.868904C160.109 4.6028 162.157 8.3367 164.163 12.0776C164.776 13.2195 165.215 14.4525 165.744 15.6644C165.807 15.6224 165.897 15.5943 165.911 15.5383C167.402 11.3981 169.777 7.70622 171.741 3.80419C172.242 2.80241 172.772 1.80063 173.329 0.826873C173.408 0.709278 173.51 0.610188 173.631 0.536419C173.751 0.46265 173.886 0.415952 174.026 0.399541C175.293 0.357508 176.561 0.399541 177.933 0.399541L176.77 2.60626C173.905 7.94908 171.047 13.2942 168.196 18.6417C167.982 19.0776 167.87 19.5568 167.868 20.0428C167.868 22.4807 167.868 24.9116 167.868 27.3425V28.2251H163.647V25.2478C163.602 24.4545 163.602 23.6593 163.647 22.866C163.919 20.5192 163.188 18.5226 162.018 16.5051C159.071 11.4191 156.299 6.22807 153.457 1.09308C153.325 0.903936 153.262 0.728792 153.074 0.427558Z" fill="white"/>
<path d="M213.622 4.14643H205.396V0.475586H226V4.13944H217.822V28.2451H213.643L213.622 4.14643Z" fill="white"/>
<path d="M135.57 28.2241V0.475586H139.805V1.42132C139.805 8.79104 139.805 16.1631 139.805 23.5375C139.805 24.5252 139.805 24.5252 140.815 24.5252H152.565V28.2171L135.57 28.2241Z" fill="white"/>
</svg>
