<svg width="38" height="37" viewBox="0 0 38 37" fill="none" xmlns="http://www.w3.org/2000/svg">
<g clip-path="url(#clip0)">
<path d="M22.5705 18.5C22.5705 20.4557 21.0036 22.041 19.0708 22.041C17.138 22.041 15.5712 20.4557 15.5712 18.5C15.5712 16.5443 17.138 14.959 19.0708 14.959C21.0036 14.959 22.5705 16.5443 22.5705 18.5Z" fill="white"/>
<path d="M27.2553 12.2349C27.0871 11.7736 26.8187 11.3561 26.47 11.0134C26.1313 10.6606 25.7189 10.389 25.2628 10.2188C24.8928 10.0734 24.3371 9.90038 23.3135 9.85324C22.2062 9.80215 21.8742 9.79114 19.0709 9.79114C16.2673 9.79114 15.9353 9.80186 14.8283 9.85296C13.8047 9.90038 13.2487 10.0734 12.879 10.2188C12.4228 10.389 12.0102 10.6606 11.6718 11.0134C11.3231 11.3561 11.0547 11.7734 10.8862 12.2349C10.7425 12.6092 10.5715 13.1718 10.5249 14.2075C10.4744 15.3276 10.4635 15.6636 10.4635 18.5003C10.4635 21.3367 10.4744 21.6726 10.5249 22.793C10.5715 23.8287 10.7425 24.3911 10.8862 24.7654C11.0547 25.2269 11.3228 25.6441 11.6715 25.9868C12.0102 26.3397 12.4226 26.6112 12.8787 26.7815C13.2487 26.9271 13.8047 27.1002 14.8283 27.1473C15.9353 27.1984 16.267 27.2091 19.0706 27.2091C21.8744 27.2091 22.2064 27.1984 23.3132 27.1473C24.3368 27.1002 24.8928 26.9271 25.2628 26.7815C26.1784 26.4241 26.9021 25.6918 27.2553 24.7654C27.399 24.3911 27.57 23.8287 27.6169 22.793C27.6674 21.6726 27.678 21.3367 27.678 18.5003C27.678 15.6636 27.6674 15.3276 27.6169 14.2075C27.5703 13.1718 27.3993 12.6092 27.2553 12.2349ZM19.0709 23.9549C16.0932 23.9549 13.6794 21.5128 13.6794 18.5C13.6794 15.4871 16.0932 13.0451 19.0709 13.0451C22.0483 13.0451 24.4621 15.4871 24.4621 18.5C24.4621 21.5128 22.0483 23.9549 19.0709 23.9549ZM24.6752 14.1042C23.9794 14.1042 23.4153 13.5334 23.4153 12.8294C23.4153 12.1254 23.9794 11.5546 24.6752 11.5546C25.371 11.5546 25.9351 12.1254 25.9351 12.8294C25.9349 13.5334 25.371 14.1042 24.6752 14.1042Z" fill="white"/>
<path d="M19.0708 0C8.97449 0 0.786987 8.28429 0.786987 18.5C0.786987 28.7157 8.97449 37 19.0708 37C29.1672 37 37.3547 28.7157 37.3547 18.5C37.3547 8.28429 29.1672 0 19.0708 0ZM29.5064 22.8797C29.4557 24.0105 29.2779 24.7826 29.0185 25.4584C28.4731 26.8854 27.3582 28.0134 25.9479 28.5652C25.2803 28.8278 24.517 29.0073 23.3996 29.059C22.2801 29.1106 21.9224 29.123 19.0711 29.123C16.2196 29.123 15.8622 29.1106 14.7423 29.059C13.625 29.0073 12.8616 28.8278 12.194 28.5652C11.4932 28.2985 10.8588 27.8804 10.3343 27.3398C9.8003 26.8094 9.38711 26.1672 9.12347 25.4584C8.86401 24.7829 8.68629 24.0105 8.63552 22.88C8.5839 21.7469 8.57191 21.385 8.57191 18.5C8.57191 15.615 8.5839 15.2531 8.63524 14.1203C8.68601 12.9895 8.86345 12.2174 9.12291 11.5416C9.38656 10.8328 9.80002 10.1906 10.3343 9.66016C10.8585 9.11958 11.4932 8.70152 12.1937 8.43475C12.8616 8.17223 13.6247 7.99269 14.7423 7.94103C15.8619 7.88937 16.2196 7.87695 19.0708 7.87695C21.9221 7.87695 22.2798 7.88937 23.3994 7.94131C24.517 7.99269 25.28 8.17223 25.9479 8.43447C26.6485 8.70123 27.2832 9.11958 27.8077 9.66016C28.3417 10.1909 28.7551 10.8328 29.0185 11.5416C29.2782 12.2174 29.4557 12.9895 29.5067 14.1203C29.5578 15.2531 29.5698 15.615 29.5698 18.5C29.5698 21.385 29.5578 21.7469 29.5064 22.8797Z" fill="white"/>
</g>
<defs>
<clipPath id="clip0">
<path d="M0.786987 0H37.3547V37H0.786987V0Z" fill="white"/>
</clipPath>
</defs>
</svg>
