<svg width="37" height="37" viewBox="0 0 37 37" fill="none" xmlns="http://www.w3.org/2000/svg">
<g clip-path="url(#clip0)">
<path d="M18.4749 0C8.37734 0 0.19104 8.2827 0.19104 18.5C0.19104 28.7173 8.37734 37 18.4749 37C28.5724 37 36.7587 28.7173 36.7587 18.5C36.7587 8.2827 28.5724 0 18.4749 0ZM20.5788 24.6448C18.8875 24.6448 17.2969 23.7197 16.7522 22.6694C16.7522 22.6694 15.8424 26.3202 15.6512 27.0246C14.973 29.5152 12.9779 32.0066 12.8227 32.2106C12.7146 32.3526 12.4755 32.3083 12.4509 32.1198C12.4086 31.8026 11.8991 28.6605 12.4984 26.098C12.798 24.811 14.5121 17.4625 14.5121 17.4625C14.5121 17.4625 14.0131 16.4507 14.0131 14.9548C14.0131 12.6061 15.3583 10.8528 17.0335 10.8528C18.4577 10.8528 19.1453 11.935 19.1453 13.2322C19.1453 14.6811 18.234 16.8478 17.7637 18.8554C17.3706 20.5364 18.5961 21.9078 20.2346 21.9078C23.2023 21.9078 25.1996 18.0515 25.1996 13.4816C25.1996 10.0091 22.8892 7.40871 18.6836 7.40871C13.9338 7.40871 10.9717 10.9936 10.9717 14.9987C10.9717 16.3788 11.375 17.3535 12.0057 18.1063C12.2949 18.4527 12.336 18.592 12.2309 18.9894C12.1549 19.2813 11.984 19.983 11.9114 20.2605C11.807 20.6625 11.4861 20.8055 11.1266 20.6575C8.9396 19.754 7.91982 17.3292 7.91982 14.6035C7.91982 10.1019 11.6716 4.70383 19.1135 4.70383C25.0934 4.70383 29.0292 9.08175 29.0292 13.7822C29.0296 20.0004 25.613 24.6448 20.5788 24.6448Z" fill="white"/>
</g>
<defs>
<clipPath id="clip0">
<path d="M0.19104 0H36.7587V37H0.19104V0Z" fill="white"/>
</clipPath>
</defs>
</svg>
