<svg width="89" height="85" viewBox="0 0 89 85" fill="none" xmlns="http://www.w3.org/2000/svg">
<path d="M88.8159 63.9429V23.7257C88.8159 20.8286 86.3422 18.48 83.2907 18.48H79.6072V2.74277C79.6072 1.77707 78.7826 0.994141 77.7654 0.994141H11.4626C10.4454 0.994141 9.62078 1.77707 9.62078 2.74277V18.48H5.93735C2.88586 18.48 0.412109 20.8286 0.412109 23.7257V63.9429C0.412109 66.84 2.88586 69.1886 5.93735 69.1886H33.5635V73.5425C29.8457 74.7479 27.1006 77.7619 26.3807 81.4287H22.5131V84.9258H66.715V81.4287H62.8473C62.1275 77.7619 59.3823 74.7481 55.6645 73.5425V69.1886H69.6066L71.7429 72.5634C72.0358 73.0286 72.5391 73.3386 73.1058 73.4027H73.3268C73.8163 73.4053 74.2868 73.2229 74.6344 72.8957L75.9419 71.6543L85.0586 80.3097L87.6554 77.8442L78.5205 69.1886H83.2907C86.3422 69.1886 88.8159 66.84 88.8159 63.9429ZM13.3044 4.49124H75.9238V11.4856H13.3044V4.49124ZM13.3044 14.9827H75.9238V49.9542H13.3044V14.9827ZM59.0534 81.4287H30.1747C30.8192 79.3304 32.8083 76.183 39.0888 76.183H44.614V72.6859H39.0888C38.4442 72.6859 37.8364 72.6859 37.247 72.6859V69.1886H51.9809V72.6857C51.3916 72.6857 50.7838 72.6857 50.1391 72.6857V76.1828C56.4195 76.183 58.4086 79.3304 59.0534 81.4287ZM73.6952 68.8389L70.8774 64.3976L75.5554 67.0729L73.6952 68.8389ZM79.4783 65.2194L66.4572 57.8054C65.5819 57.3133 64.4524 57.588 63.934 58.4188C63.5913 58.9683 63.5913 59.6514 63.934 60.2009L67.3965 65.6913H5.93735C4.92019 65.6913 4.09554 64.9084 4.09554 63.9427V23.7257C4.09554 22.76 4.92019 21.9771 5.93735 21.9771H9.62078V49.9543H7.77915V53.4514H81.4491V49.9543H79.6072V21.9771H83.2907C84.3078 21.9771 85.1325 22.76 85.1325 23.7257V63.9429C85.1325 64.9086 84.3078 65.6915 83.2907 65.6915H79.994C79.8562 65.5035 79.681 65.3431 79.4783 65.2194Z" fill="#5073F0"/>
<path d="M20.6717 6.23999H16.9883V9.73709H20.6717V6.23999Z" fill="#5073F0"/>
<path d="M28.0379 6.23999H24.3545V9.73709H28.0379V6.23999Z" fill="#5073F0"/>
<path d="M35.4051 6.23999H31.7217V9.73709H35.4051V6.23999Z" fill="#5073F0"/>
<path d="M63.0313 18.48H26.1963C25.1791 18.48 24.3545 19.2629 24.3545 20.2286V28.9714C24.3545 29.9371 25.1791 30.7201 26.1963 30.7201H31.7215V44.7086C31.7215 45.6743 32.5462 46.4573 33.5633 46.4573H55.6643C56.6814 46.4573 57.5061 45.6743 57.5061 44.7086V30.7201H63.0313C64.0485 30.7201 64.8731 29.9371 64.8731 28.9714V20.2286C64.873 19.2627 64.0485 18.48 63.0313 18.48ZM42.772 42.96H35.405V28.9714C35.405 28.0057 34.5803 27.2228 33.5632 27.2228H28.0379V21.9771H37.5046C38.1779 24.4262 40.1924 26.3387 42.772 26.9781V42.96ZM42.7342 23.2C42.2038 22.9011 41.7607 22.4807 41.4461 21.9771H47.7817C46.7434 23.6382 44.4836 24.1857 42.7342 23.2ZM61.1895 27.2228H55.6643C54.6471 27.2228 53.8225 28.0057 53.8225 28.9714V42.96H46.4554V26.9781C49.035 26.3387 51.0495 24.4262 51.7229 21.9771H61.1895V27.2228Z" fill="#5073F0"/>
<path d="M9.62093 56.9485H5.9375V62.1942C5.9375 63.1599 6.76214 63.9428 7.7793 63.9428H13.3045V60.4457H9.62093V56.9485Z" fill="#5073F0"/>
</svg>
