<svg width="100" height="94" viewBox="0 0 100 94" fill="none" xmlns="http://www.w3.org/2000/svg">
<path d="M97.3318 33.1477C97.2144 33.1296 97.0957 33.1212 96.9768 33.1227H57.841C56.6441 24.5895 48.3877 18.593 39.3999 19.7294C32.0521 20.6584 26.2714 26.1466 25.2928 33.1227H21.0447V25.3291C21.0447 22.1009 18.2883 19.4839 14.8881 19.4839H0.522461V23.3806H14.8881C16.0215 23.3806 16.9404 24.253 16.9404 25.3291V35.0709C16.9315 35.1747 16.9315 35.279 16.9404 35.3827L23.097 70.4538C23.2596 71.4067 24.1327 72.1028 25.1493 72.0904H90.8204C91.837 72.1028 92.7101 71.4067 92.8726 70.4538L99.0293 35.3827C99.2105 34.3208 98.4508 33.3199 97.3318 33.1477ZM41.5668 23.3808C47.5707 23.3866 52.6948 27.5024 53.6955 33.1227H29.4382C30.4389 27.5025 35.5631 23.3866 41.5668 23.3808ZM89.0759 68.1939H26.8936L21.4141 37.0196H94.5553L89.0759 68.1939Z" fill="#5073F0"/>
<path d="M82.6115 74.0392C77.7346 74.0383 73.531 77.2962 72.5555 81.8328H45.4662C44.3328 76.5612 38.9128 73.16 33.3603 74.2361C27.8078 75.3122 24.2253 80.4579 25.3588 85.7295C26.4922 91.0012 31.9121 94.4023 37.4647 93.3263C41.4944 92.5454 44.6437 89.5554 45.4662 85.7295H72.5555C73.6889 91.0012 79.1089 94.4023 84.6615 93.3263C90.214 92.2502 93.7964 87.1044 92.663 81.8328C91.6882 77.2977 87.4866 74.0401 82.6115 74.0392ZM35.4103 89.6263C32.0101 89.6263 29.2536 87.0093 29.2536 83.7811C29.2536 80.5529 32.0101 77.9359 35.4103 77.9359C38.8105 77.9359 41.5669 80.5529 41.5669 83.7811C41.5669 87.0093 38.8105 89.6263 35.4103 89.6263ZM82.6115 89.6263C79.2113 89.6263 76.4548 87.0093 76.4548 83.7811C76.4548 80.5529 79.2113 77.9359 82.6115 77.9359C86.0117 77.9359 88.7682 80.5529 88.7682 83.7811C88.7682 87.0093 86.0117 89.6263 82.6115 89.6263Z" fill="#5073F0"/>
<path d="M33.3583 62.3486H29.2539V66.2454H33.3583V62.3486Z" fill="#5073F0"/>
<path d="M41.5673 62.3486H37.4629V66.2454H41.5673V62.3486Z" fill="#5073F0"/>
<path d="M76.4548 31.1743C85.5221 31.1743 92.8725 24.1957 92.8725 15.5872C92.8725 6.97877 85.5221 0 76.4548 0C67.3876 0 60.0371 6.97859 60.0371 15.5871C60.0371 24.1955 67.3874 31.1743 76.4548 31.1743ZM76.4548 3.8969C83.2552 3.8969 88.7682 9.13089 88.7682 15.5872C88.7682 22.0436 83.2552 27.2776 76.4548 27.2776C69.6544 27.2776 64.1415 22.0436 64.1415 15.5872C64.1415 9.1307 69.6542 3.8969 76.4548 3.8969Z" fill="#5073F0"/>
<path d="M74.4024 25.3292H78.5068V23.3807H80.5591C81.6925 23.3807 82.6114 22.5083 82.6114 21.4323V15.5871C82.6114 14.511 81.6925 13.6387 80.5591 13.6387H74.4024V11.6904H82.6114V7.79367H78.507V5.84521H74.4024V7.79367H72.3501C71.2167 7.79367 70.2979 8.66606 70.2979 9.74212V15.5873C70.2979 16.6633 71.2167 17.5357 72.3501 17.5357H78.5068V19.4842H70.2979V23.3809H74.4024V25.3292Z" fill="#5073F0"/>
</svg>
