<svg width="91" height="86" viewBox="0 0 91 86" fill="none" xmlns="http://www.w3.org/2000/svg">
<path d="M21.837 27.3853L12.5324 36.2191C11.8108 36.9082 11.8108 38.0212 12.5324 38.7103L21.837 47.5442L24.4609 45.053L16.4775 37.4737L24.4609 29.8941L21.837 27.3853Z" fill="#5073F0"/>
<path d="M67.2811 27.3853L64.6572 29.8764L72.6406 37.4737L64.6572 45.0532L67.2811 47.5443L76.5857 38.7105C77.3073 38.0214 77.3073 36.9083 76.5857 36.2193L67.2811 27.3853Z" fill="#5073F0"/>
<path d="M90.1519 63.9753V23.3394C90.1519 20.4121 87.6523 18.039 84.5691 18.039H60.3769V14.5053H69.6815C70.7093 14.5053 71.5425 13.7142 71.5425 12.7385V2.13777C71.5425 1.16217 70.7094 0.371094 69.6817 0.371094H21.2973C20.2696 0.371094 19.4363 1.16217 19.4363 2.13793V12.7386C19.4363 13.7144 20.2696 14.5055 21.2973 14.5055H28.7411V18.039H6.40994C3.32667 18.039 0.827148 20.4121 0.827148 23.3394V63.9753C0.827148 66.9026 3.32667 69.2757 6.40994 69.2757H34.3239V73.675C30.5674 74.8929 27.7936 77.9383 27.0663 81.6432H23.1583V85.1768H67.8207V81.6432H63.9127C63.1854 77.9383 60.4116 74.8931 56.6551 73.675V69.2757H70.7424L72.901 72.6856C73.1969 73.1557 73.7055 73.4689 74.2781 73.5337H74.5014C74.996 73.5364 75.4714 73.352 75.8226 73.0214L77.1438 71.767L86.4484 80.6009L88.9606 78.1097L79.6562 69.2757H84.5691C87.6523 69.2757 90.1519 66.9026 90.1519 63.9753ZM50.7373 3.90461C49.6714 6.65135 46.4618 8.0576 43.5687 7.04556C42.0346 6.5089 40.8254 5.36088 40.2603 3.90461H50.7373ZM23.1583 10.9718V3.90461H36.3709C37.3936 8.68586 42.305 11.7748 47.3411 10.804C51.0027 10.0981 53.8646 7.38114 54.6081 3.90461H67.8207V10.9718H58.5161C57.4883 10.9718 56.6551 11.7629 56.6551 12.7386V33.9401H32.4629V12.7386C32.4629 11.7629 31.6297 10.9718 30.6019 10.9718H23.1583ZM4.54895 23.3394C4.54895 22.3636 5.38218 21.5725 6.40994 21.5725H28.7411V35.7067C28.7411 36.6825 29.5744 37.4736 30.6021 37.4736H58.5161C59.5438 37.4736 60.3771 36.6825 60.3771 35.7067V21.5725H84.5691C85.5968 21.5725 86.43 22.3636 86.43 23.3394V53.3746H4.54895V23.3394ZM60.0793 81.6432H30.8997C31.551 79.5231 33.5608 76.3429 39.9067 76.3429H45.4895V72.8094H39.9067C39.2554 72.8094 38.6413 72.8094 38.0457 72.8094V69.2757H52.9331V72.8092C52.3377 72.8092 51.7236 72.8092 51.0721 72.8092V76.3427C57.418 76.3429 59.4278 79.5231 60.0793 81.6432ZM74.8737 68.9224L72.0264 64.4348L76.7532 67.138L74.8737 68.9224ZM80.7169 65.2651L67.5602 57.7739C66.6759 57.2767 65.5345 57.5543 65.0108 58.3937C64.6645 58.949 64.6645 59.6392 65.0108 60.1944L68.5093 65.742H6.40994C5.38218 65.742 4.54895 64.9509 4.54895 63.9752V56.908H86.4299V63.9753C86.4299 64.9511 85.5966 65.7422 84.5689 65.7422H81.2379C81.0988 65.5522 80.9218 65.3902 80.7169 65.2651Z" fill="#5073F0"/>
<path d="M11.9933 60.4419H8.27148V63.9754H11.9933V60.4419Z" fill="#5073F0"/>
<path d="M17.5753 60.4419H13.8535V63.9754H17.5753V60.4419Z" fill="#5073F0"/>
<path d="M23.1583 60.4419H19.4365V63.9754H23.1583V60.4419Z" fill="#5073F0"/>
<path d="M52.9334 42.7739H28.7412V46.3074H52.9334V42.7739Z" fill="#5073F0"/>
<path d="M60.3771 42.7739H56.6553V46.3074H60.3771V42.7739Z" fill="#5073F0"/>
</svg>
