<svg width="37" height="37" viewBox="0 0 37 37" fill="none" xmlns="http://www.w3.org/2000/svg">
<g clip-path="url(#clip0)">
<path d="M18.6667 0C8.57031 0 0.382812 8.28429 0.382812 18.5C0.382812 28.7157 8.57031 37 18.6667 37C28.763 37 36.9505 28.7157 36.9505 18.5C36.9505 8.28429 28.763 0 18.6667 0ZM27.0149 14.4243C27.0229 14.6064 27.0269 14.7893 27.0269 14.9731C27.0269 20.5841 22.8057 27.0544 15.0864 27.0547H15.0867H15.0864C12.7164 27.0547 10.511 26.3518 8.65373 25.1473C8.9821 25.1865 9.31633 25.206 9.65475 25.206C11.6211 25.206 13.4306 24.5274 14.8671 23.3884C13.03 23.3539 11.481 22.1263 10.9465 20.439C11.2023 20.4887 11.4654 20.5158 11.7352 20.5158C12.1182 20.5158 12.4893 20.4636 12.8419 20.3662C10.9216 19.9772 9.47508 18.2601 9.47508 16.2039C9.47508 16.1847 9.47508 16.1675 9.47563 16.1497C10.0411 16.4678 10.6878 16.6592 11.3764 16.6807C10.2496 15.9199 9.50883 14.6194 9.50883 13.1461C9.50883 12.3681 9.71668 11.6393 10.0771 11.0118C12.1467 13.5811 15.2396 15.2709 18.7275 15.4485C18.6555 15.1374 18.6184 14.8133 18.6184 14.4802C18.6184 12.1361 20.4979 10.2343 22.8155 10.2343C24.0227 10.2343 25.113 10.7506 25.8788 11.576C26.8349 11.3852 27.7327 11.0318 28.5437 10.5454C28.2299 11.5365 27.5647 12.3681 26.6982 12.8941C27.5472 12.7913 28.3562 12.5635 29.1081 12.2253C28.5465 13.077 27.8343 13.825 27.0149 14.4243Z" fill="white"/>
</g>
<defs>
<clipPath id="clip0">
<path d="M0.382812 0H36.9505V37H0.382812V0Z" fill="white"/>
</clipPath>
</defs>
</svg>
