<svg width="59" height="55" viewBox="0 0 59 55" fill="none" xmlns="http://www.w3.org/2000/svg">
<path d="M20.2563 10.2917L19.6663 6.41987C19.6219 6.12677 19.473 5.85961 19.2471 5.66762C19.0213 5.47562 18.7336 5.37173 18.4372 5.37508H14.7497C14.4237 5.37508 14.111 5.50458 13.8805 5.73509C13.65 5.96561 13.5205 6.27825 13.5205 6.60425C13.5205 6.93024 13.65 7.24288 13.8805 7.4734C14.111 7.70391 14.4237 7.83341 14.7497 7.83341H17.3801C17.7734 10.3778 17.798 10.5745 19.6172 22.3499C19.078 22.8546 18.7028 23.5097 18.5403 24.2302C18.3777 24.9506 18.4353 25.7033 18.7055 26.3907C18.9756 27.0781 19.446 27.6685 20.0557 28.0855C20.6653 28.5024 21.3861 28.7267 22.1247 28.7292H35.6455C35.9715 28.7292 36.2841 28.5997 36.5147 28.3692C36.7452 28.1387 36.8747 27.8261 36.8747 27.5001C36.8747 27.1741 36.7452 26.8614 36.5147 26.6309C36.2841 26.4004 35.9715 26.2709 35.6455 26.2709H22.1247C21.7987 26.2709 21.486 26.1414 21.2555 25.9109C21.025 25.6804 20.8955 25.3677 20.8955 25.0417C20.8955 24.7158 21.025 24.4031 21.2555 24.1726C21.486 23.9421 21.7987 23.8126 22.1247 23.8126H39.333C39.6171 23.8195 39.8949 23.7278 40.119 23.553C40.3431 23.3782 40.4997 23.1311 40.5622 22.8538C43.1803 11.0784 43.3032 11.4103 42.7747 10.7465C42.2461 10.0828 43.3893 10.2917 20.2563 10.2917ZM38.3497 21.3542H22.1247C21.8788 21.3542 22.1247 22.3007 20.6374 12.7501H40.3041L38.3497 21.3542Z" fill="white"/>
<path d="M24.5837 29.9585C24.2577 29.9585 23.945 30.088 23.7145 30.3185C23.484 30.549 23.3545 30.8617 23.3545 31.1877C23.3545 31.5137 23.484 31.8263 23.7145 32.0568C23.945 32.2873 24.2577 32.4168 24.5837 32.4168C24.9097 32.4168 25.2223 32.2873 25.4528 32.0568C25.6833 31.8263 25.8128 31.5137 25.8128 31.1877C25.8128 30.8617 25.6833 30.549 25.4528 30.3185C25.2223 30.088 24.9097 29.9585 24.5837 29.9585Z" fill="white"/>
<path d="M31.9587 29.9585C31.6327 29.9585 31.32 30.088 31.0895 30.3185C30.859 30.549 30.7295 30.8617 30.7295 31.1877C30.7295 31.5137 30.859 31.8263 31.0895 32.0568C31.32 32.2873 31.6327 32.4168 31.9587 32.4168C32.2847 32.4168 32.5973 32.2873 32.8278 32.0568C33.0583 31.8263 33.1878 31.5137 33.1878 31.1877C33.1878 30.8617 33.0583 30.549 32.8278 30.3185C32.5973 30.088 32.2847 29.9585 31.9587 29.9585Z" fill="white"/>
<path d="M52.8542 0.458496H6.14583C4.51586 0.458496 2.95264 1.106 1.80007 2.25857C0.647506 3.41114 0 4.97435 0 6.60433L0 38.5627C0 40.1926 0.647506 41.7559 1.80007 42.9084C2.95264 44.061 4.51586 44.7085 6.14583 44.7085H21.7808L19.9371 52.0835H15.9792C15.6532 52.0835 15.3405 52.213 15.11 52.4435C14.8795 52.674 14.75 52.9867 14.75 53.3127C14.75 53.6387 14.8795 53.9513 15.11 54.1818C15.3405 54.4123 15.6532 54.5418 15.9792 54.5418H43.0208C43.3468 54.5418 43.6595 54.4123 43.89 54.1818C44.1205 53.9513 44.25 53.6387 44.25 53.3127C44.25 52.9867 44.1205 52.674 43.89 52.4435C43.6595 52.213 43.3468 52.0835 43.0208 52.0835H39.0629L37.2192 44.7085H52.8542C53.6612 44.7085 54.4604 44.5495 55.2061 44.2407C55.9517 43.9318 56.6292 43.4791 57.1999 42.9084C57.7706 42.3377 58.2233 41.6602 58.5322 40.9146C58.841 40.1689 59 39.3697 59 38.5627V6.60433C59 5.79725 58.841 4.99807 58.5322 4.25242C58.2233 3.50677 57.7706 2.82926 57.1999 2.25857C56.6292 1.68788 55.9517 1.23518 55.2061 0.92632C54.4604 0.617463 53.6612 0.458496 52.8542 0.458496ZM2.45833 6.60433C2.45833 5.62634 2.84684 4.68841 3.53838 3.99687C4.22992 3.30533 5.16785 2.91683 6.14583 2.91683H52.8542C53.8321 2.91683 54.7701 3.30533 55.4616 3.99687C56.1532 4.68841 56.5417 5.62634 56.5417 6.60433V34.8752H2.45833V6.60433ZM36.5308 52.0835H22.4692L24.3129 44.7085H34.6871L36.5308 52.0835ZM56.5417 38.5627C56.5417 39.5406 56.1532 40.4786 55.4616 41.1701C54.7701 41.8617 53.8321 42.2502 52.8542 42.2502H6.14583C5.16785 42.2502 4.22992 41.8617 3.53838 41.1701C2.84684 40.4786 2.45833 39.5406 2.45833 38.5627V37.3335H56.5417V38.5627Z" fill="white"/>
<path d="M47.9375 22.5835H44.25C44.0009 22.5852 43.7583 22.6625 43.5541 22.8052C43.35 22.9478 43.194 23.1492 43.1069 23.3825C42.9839 23.7143 43.0208 23.5177 43.0208 27.5002C43.0208 27.8262 43.1503 28.1388 43.3808 28.3693C43.6113 28.5998 43.924 28.7293 44.25 28.7293C44.576 28.7293 44.8886 28.5998 45.1191 28.3693C45.3496 28.1388 45.4791 27.8262 45.4791 27.5002V26.775L47.0648 28.3729C47.2962 28.6043 47.6101 28.7344 47.9375 28.7344C48.2648 28.7344 48.5787 28.6043 48.8102 28.3729C49.0416 28.1414 49.1717 27.8275 49.1717 27.5002C49.1717 27.1728 49.0416 26.8589 48.8102 26.6275L47.2123 25.0418H47.9375C48.2635 25.0418 48.5761 24.9123 48.8066 24.6818C49.0371 24.4513 49.1666 24.1387 49.1666 23.8127C49.1666 23.4867 49.0371 23.174 48.8066 22.9435C48.5761 22.713 48.2635 22.5835 47.9375 22.5835Z" fill="white"/>
</svg>
