<svg width="56" height="55" viewBox="0 0 56 55" fill="none" xmlns="http://www.w3.org/2000/svg">
<path d="M17.0793 37.9199H15.1816C14.4266 37.9199 13.7026 38.2198 13.1687 38.7537C12.6349 39.2875 12.335 40.0116 12.335 40.7665V52.153C12.335 52.908 12.6349 53.632 13.1687 54.1659C13.7026 54.6997 14.4266 54.9996 15.1816 54.9996H17.0793C17.8343 54.9996 18.5583 54.6997 19.0922 54.1659C19.626 53.632 19.9259 52.908 19.9259 52.153V40.7665C19.9259 40.0116 19.626 39.2875 19.0922 38.7537C18.5583 38.2198 17.8343 37.9199 17.0793 37.9199ZM18.0282 52.153C18.0282 52.4047 17.9282 52.646 17.7503 52.824C17.5723 53.0019 17.331 53.1019 17.0793 53.1019H15.1816C14.9299 53.1019 14.6886 53.0019 14.5106 52.824C14.3327 52.646 14.2327 52.4047 14.2327 52.153V40.7665C14.2327 40.5149 14.3327 40.2735 14.5106 40.0956C14.6886 39.9176 14.9299 39.8177 15.1816 39.8177H17.0793C17.331 39.8177 17.5723 39.9176 17.7503 40.0956C17.9282 40.2735 18.0282 40.5149 18.0282 40.7665V52.153Z" fill="white"/>
<path d="M5.69358 43.6133H3.79584C3.04087 43.6133 2.31682 43.9132 1.78297 44.447C1.24913 44.9809 0.949219 45.7049 0.949219 46.4599V52.1531C0.949219 52.9081 1.24913 53.6322 1.78297 54.166C2.31682 54.6998 3.04087 54.9998 3.79584 54.9998H5.69358C6.44855 54.9998 7.1726 54.6998 7.70645 54.166C8.24029 53.6322 8.5402 52.9081 8.5402 52.1531V46.4599C8.5402 45.7049 8.24029 44.9809 7.70645 44.447C7.1726 43.9132 6.44855 43.6133 5.69358 43.6133ZM6.64246 52.1531C6.64246 52.4048 6.54249 52.6461 6.36454 52.8241C6.18659 53.002 5.94524 53.102 5.69358 53.102H3.79584C3.54418 53.102 3.30283 53.002 3.12488 52.8241C2.94694 52.6461 2.84697 52.4048 2.84697 52.1531V46.4599C2.84697 46.2082 2.94694 45.9669 3.12488 45.7889C3.30283 45.611 3.54418 45.511 3.79584 45.511H5.69358C5.94524 45.511 6.18659 45.611 6.36454 45.7889C6.54249 45.9669 6.64246 46.2082 6.64246 46.4599V52.1531Z" fill="white"/>
<path d="M28.466 32.2271H26.5683C25.8133 32.2271 25.0893 32.527 24.5554 33.0608C24.0216 33.5947 23.7217 34.3187 23.7217 35.0737V52.1534C23.7217 52.9084 24.0216 53.6324 24.5554 54.1662C25.0893 54.7001 25.8133 55 26.5683 55H28.466C29.221 55 29.9451 54.7001 30.4789 54.1662C31.0128 53.6324 31.3127 52.9084 31.3127 52.1534V35.0737C31.3127 34.3187 31.0128 33.5947 30.4789 33.0608C29.9451 32.527 29.221 32.2271 28.466 32.2271ZM29.4149 52.1534C29.4149 52.405 29.3149 52.6464 29.137 52.8243C28.9591 53.0023 28.7177 53.1023 28.466 53.1023H26.5683C26.3166 53.1023 26.0753 53.0023 25.8973 52.8243C25.7194 52.6464 25.6194 52.405 25.6194 52.1534V35.0737C25.6194 34.822 25.7194 34.5807 25.8973 34.4027C26.0753 34.2248 26.3166 34.1248 26.5683 34.1248H28.466C28.7177 34.1248 28.9591 34.2248 29.137 34.4027C29.3149 34.5807 29.4149 34.822 29.4149 35.0737V52.1534Z" fill="white"/>
<path d="M39.8528 26.5337H37.955C37.2 26.5337 36.476 26.8336 35.9422 27.3674C35.4083 27.9013 35.1084 28.6253 35.1084 29.3803V52.1533C35.1084 52.9082 35.4083 53.6323 35.9422 54.1661C36.476 54.7 37.2 54.9999 37.955 54.9999H39.8528C40.6077 54.9999 41.3318 54.7 41.8656 54.1661C42.3995 53.6323 42.6994 52.9082 42.6994 52.1533V29.3803C42.6994 28.6253 42.3995 27.9013 41.8656 27.3674C41.3318 26.8336 40.6077 26.5337 39.8528 26.5337ZM40.8016 52.1533C40.8016 52.4049 40.7017 52.6463 40.5237 52.8242C40.3458 53.0022 40.1044 53.1021 39.8528 53.1021H37.955C37.7034 53.1021 37.462 53.0022 37.2841 52.8242C37.1061 52.6463 37.0061 52.4049 37.0061 52.1533V29.3803C37.0061 29.1287 37.1061 28.8873 37.2841 28.7094C37.462 28.5314 37.7034 28.4314 37.955 28.4314H39.8528C40.1044 28.4314 40.3458 28.5314 40.5237 28.7094C40.7017 28.8873 40.8016 29.1287 40.8016 29.3803V52.1533Z" fill="white"/>
<path d="M52.1885 33.1759V34.1248C52.1885 34.3765 52.2884 34.6178 52.4664 34.7958C52.6443 34.9737 52.8857 35.0737 53.1373 35.0737C53.389 35.0737 53.6304 34.9737 53.8083 34.7958C53.9863 34.6178 54.0862 34.3765 54.0862 34.1248V33.1759C54.0862 32.9243 53.9863 32.6829 53.8083 32.505C53.6304 32.327 53.389 32.2271 53.1373 32.2271C52.8857 32.2271 52.6443 32.327 52.4664 32.505C52.2884 32.6829 52.1885 32.9243 52.1885 33.1759Z" fill="white"/>
<path d="M51.2395 19.8916H49.3417C48.5868 19.8916 47.8627 20.1915 47.3289 20.7254C46.795 21.2592 46.4951 21.9833 46.4951 22.7382V51.2044C46.4951 51.9594 46.795 52.6834 47.3289 53.2173C47.8627 53.7511 48.5868 54.051 49.3417 54.051H51.2395C51.9945 54.051 52.7185 53.7511 53.2523 53.2173C53.7862 52.6834 54.0861 51.9594 54.0861 51.2044V37.9202C54.0861 37.6685 53.9861 37.4272 53.8082 37.2492C53.6302 37.0713 53.3889 36.9713 53.1372 36.9713C52.8856 36.9713 52.6442 37.0713 52.4663 37.2492C52.2883 37.4272 52.1884 37.6685 52.1884 37.9202V51.2044C52.1884 51.4561 52.0884 51.6974 51.9104 51.8754C51.7325 52.0533 51.4911 52.1533 51.2395 52.1533H49.3417C49.0901 52.1533 48.8487 52.0533 48.6708 51.8754C48.4928 51.6974 48.3929 51.4561 48.3929 51.2044V22.7382C48.3929 22.4866 48.4928 22.2452 48.6708 22.0673C48.8487 21.8893 49.0901 21.7893 49.3417 21.7893H51.2395C51.4911 21.7893 51.7325 21.8893 51.9104 22.0673C52.0884 22.2452 52.1884 22.4866 52.1884 22.7382V29.3803C52.1884 29.632 52.2883 29.8733 52.4663 30.0513C52.6442 30.2292 52.8856 30.3292 53.1372 30.3292C53.3889 30.3292 53.6302 30.2292 53.8082 30.0513C53.9861 29.8733 54.0861 29.632 54.0861 29.3803V22.7382C54.0861 21.9833 53.7862 21.2592 53.2523 20.7254C52.7185 20.1915 51.9945 19.8916 51.2395 19.8916Z" fill="white"/>
<path d="M14.7082 11.3517H12.336C12.0844 11.3517 11.843 11.4517 11.6651 11.6296C11.4871 11.8076 11.3872 12.0489 11.3872 12.3006C11.3872 12.5523 11.4871 12.7936 11.6651 12.9716C11.843 13.1495 12.0844 13.2495 12.336 13.2495H13.2849V14.1983C13.2849 14.45 13.3849 14.6914 13.5628 14.8693C13.7408 15.0472 13.9821 15.1472 14.2338 15.1472C14.4854 15.1472 14.7268 15.0472 14.9047 14.8693C15.0827 14.6914 15.1826 14.45 15.1826 14.1983C15.1826 13.9516 15.1826 13.2495 15.1826 13.202C15.7592 13.085 16.2716 12.7579 16.6205 12.2842C16.9694 11.8106 17.1299 11.2242 17.0708 10.6389C17.0116 10.0536 16.7372 9.51113 16.3006 9.11683C15.864 8.72253 15.2965 8.50452 14.7082 8.50511H13.7593C13.6335 8.50511 13.5128 8.45512 13.4239 8.36615C13.3349 8.27717 13.2849 8.1565 13.2849 8.03067C13.2849 7.90484 13.3349 7.78417 13.4239 7.69519C13.5128 7.60622 13.6335 7.55623 13.7593 7.55623H16.1315C16.3832 7.55623 16.6245 7.45626 16.8025 7.27832C16.9804 7.10037 17.0804 6.85902 17.0804 6.60736C17.0804 6.3557 16.9804 6.11436 16.8025 5.93641C16.6245 5.75846 16.3832 5.65849 16.1315 5.65849H15.1826V4.70962C15.1826 4.45796 15.0827 4.21661 14.9047 4.03866C14.7268 3.86071 14.4854 3.76074 14.2338 3.76074C13.9821 3.76074 13.7408 3.86071 13.5628 4.03866C13.3849 4.21661 13.2849 4.45796 13.2849 4.70962V5.70593C12.7084 5.823 12.1959 6.1501 11.847 6.62374C11.4981 7.09738 11.3377 7.68377 11.3968 8.26907C11.4559 8.85437 11.7304 9.39683 12.167 9.79113C12.6035 10.1854 13.1711 10.4034 13.7593 10.4029C14.3856 10.4029 15.1826 10.251 15.1826 10.8773C15.1826 11.0031 15.1327 11.1238 15.0437 11.2128C14.9547 11.3017 14.834 11.3517 14.7082 11.3517Z" fill="white"/>
<path d="M5.69317 13.5248C9.9631 22.596 23.7218 19.5311 23.7218 9.45409C23.7218 -1.30613 8.73906 -3.58343 5.29465 6.28485C4.46382 8.65575 4.60714 11.2594 5.69317 13.5248ZM6.72745 8.61908C6.88888 7.16057 7.46959 5.78012 8.39929 4.6448C9.32899 3.50948 10.5678 2.66796 11.9659 2.2221C13.3639 1.77623 14.8612 1.74513 16.2765 2.13256C17.6919 2.51999 18.9646 3.30934 19.9406 4.40507C20.9167 5.50081 21.5542 6.85596 21.7761 8.3065C21.9979 9.75704 21.7946 11.2408 21.1907 12.5782C20.5868 13.9156 19.6082 15.0493 18.3734 15.842C17.1386 16.6348 15.7004 17.0527 14.233 17.0451C13.1666 17.0435 12.1125 16.8174 11.1394 16.3812C10.1662 15.9451 9.29592 15.3088 8.58512 14.5139C7.87431 13.7189 7.33897 12.7831 7.01399 11.7674C6.68901 10.7518 6.58167 9.67901 6.69898 8.61908H6.72745Z" fill="white"/>
<mask id="path-9-inside-1" fill="white">
<path d="M50.2903 3.76044C50.0386 3.76044 49.7973 3.86041 49.6193 4.03836C49.4414 4.21631 49.3414 4.45766 49.3414 4.70932C49.3414 4.96097 49.4414 5.20232 49.6193 5.38027C49.7973 5.55822 50.0386 5.65819 50.2903 5.65819H51.761L46.7415 10.5923C34.928 22.1781 19.9263 28.4311 0.948873 28.4311C0.697216 28.4311 0.455867 28.5311 0.277918 28.7091C0.0999702 28.887 0 29.1284 0 29.38C0 29.6317 0.0999702 29.873 0.277918 30.051C0.455867 30.2289 0.697216 30.3289 0.948873 30.3289C20.5431 30.3289 35.9813 23.8101 48.0699 11.9397L53.1369 6.96763V8.50481C53.1369 8.75647 53.2369 8.99782 53.4148 9.17576C53.5928 9.35371 53.8341 9.45368 54.0858 9.45368C54.3374 9.45368 54.5788 9.35371 54.7567 9.17576C54.9347 8.99782 55.0346 8.75647 55.0346 8.50481C55.0346 2.93492 55.8981 3.76044 50.2903 3.76044Z"/>
</mask>
<path d="M50.2903 3.76044C50.0386 3.76044 49.7973 3.86041 49.6193 4.03836C49.4414 4.21631 49.3414 4.45766 49.3414 4.70932C49.3414 4.96097 49.4414 5.20232 49.6193 5.38027C49.7973 5.55822 50.0386 5.65819 50.2903 5.65819H51.761L46.7415 10.5923C34.928 22.1781 19.9263 28.4311 0.948873 28.4311C0.697216 28.4311 0.455867 28.5311 0.277918 28.7091C0.0999702 28.887 0 29.1284 0 29.38C0 29.6317 0.0999702 29.873 0.277918 30.051C0.455867 30.2289 0.697216 30.3289 0.948873 30.3289C20.5431 30.3289 35.9813 23.8101 48.0699 11.9397L53.1369 6.96763V8.50481C53.1369 8.75647 53.2369 8.99782 53.4148 9.17576C53.5928 9.35371 53.8341 9.45368 54.0858 9.45368C54.3374 9.45368 54.5788 9.35371 54.7567 9.17576C54.9347 8.99782 55.0346 8.75647 55.0346 8.50481C55.0346 2.93492 55.8981 3.76044 50.2903 3.76044Z" fill="white"/>
<path d="M51.761 5.65819L53.1631 7.08448L56.6487 3.65819H51.761V5.65819ZM46.7415 10.5923L48.1419 12.0202L48.1435 12.0186L46.7415 10.5923ZM0 29.38H-2H0ZM48.0699 11.9397L46.6691 10.5122L46.6686 10.5127L48.0699 11.9397ZM53.1369 6.96763H55.1369V2.20302L51.7361 5.54012L53.1369 6.96763ZM50.2903 1.76044C49.5082 1.76044 48.7581 2.07113 48.2051 2.62415L51.0335 5.45257C50.8364 5.6497 50.5691 5.76044 50.2903 5.76044V1.76044ZM48.2051 2.62415C47.6521 3.17717 47.3414 3.92723 47.3414 4.70932H51.3414C51.3414 4.98809 51.2307 5.25545 51.0335 5.45257L48.2051 2.62415ZM47.3414 4.70932C47.3414 5.4914 47.6521 6.24146 48.2051 6.79448L51.0335 3.96606C51.2307 4.16318 51.3414 4.43054 51.3414 4.70932H47.3414ZM48.2051 6.79448C48.7581 7.34751 49.5082 7.65819 50.2903 7.65819V3.65819C50.5691 3.65819 50.8364 3.76893 51.0335 3.96606L48.2051 6.79448ZM50.2903 7.65819H51.761V3.65819H50.2903V7.65819ZM50.359 4.23189L45.3395 9.16603L48.1435 12.0186L53.1631 7.08448L50.359 4.23189ZM45.3411 9.16442C33.9229 20.3625 19.4334 26.4311 0.948873 26.4311V30.4311C20.4193 30.4311 35.9331 23.9936 48.1419 12.0202L45.3411 9.16442ZM0.948873 26.4311C0.166787 26.4311 -0.583271 26.7418 -1.1363 27.2948L1.69213 30.1233C1.495 30.3204 1.22765 30.4311 0.948873 30.4311V26.4311ZM-1.1363 27.2948C-1.68932 27.8479 -2 28.5979 -2 29.38H2C2 29.6588 1.88926 29.9261 1.69213 30.1233L-1.1363 27.2948ZM-2 29.38C-2 30.1621 -1.68932 30.9122 -1.1363 31.4652L1.69213 28.6368C1.88926 28.8339 2 29.1012 2 29.38H-2ZM-1.1363 31.4652C-0.583271 32.0182 0.166787 32.3289 0.948873 32.3289V28.3289C1.22765 28.3289 1.495 28.4396 1.69213 28.6368L-1.1363 31.4652ZM0.948873 32.3289C21.0403 32.3289 36.9898 25.6228 49.4712 13.3668L46.6686 10.5127C34.9727 21.9974 20.0459 28.3289 0.948873 28.3289V32.3289ZM49.4707 13.3672L54.5377 8.39515L51.7361 5.54012L46.6691 10.5122L49.4707 13.3672ZM51.1369 6.96763V8.50481H55.1369V6.96763H51.1369ZM51.1369 8.50481C51.1369 9.28689 51.4476 10.037 52.0006 10.59L54.829 7.76155C55.0262 7.95868 55.1369 8.22604 55.1369 8.50481H51.1369ZM52.0006 10.59C52.5536 11.143 53.3037 11.4537 54.0858 11.4537V7.45368C54.3645 7.45368 54.6319 7.56442 54.829 7.76155L52.0006 10.59ZM54.0858 11.4537C54.8679 11.4537 55.6179 11.143 56.1709 10.59L53.3425 7.76155C53.5396 7.56442 53.807 7.45368 54.0858 7.45368V11.4537ZM56.1709 10.59C56.724 10.037 57.0346 9.28689 57.0346 8.50481H53.0346C53.0346 8.22604 53.1454 7.95868 53.3425 7.76155L56.1709 10.59ZM57.0346 8.50481C57.0346 7.83427 57.0476 7.25815 57.0602 6.75136C57.0724 6.25936 57.0856 5.791 57.0819 5.3948C57.0782 5.01011 57.0594 4.56412 56.9676 4.13634C56.8711 3.68643 56.6658 3.12065 56.1865 2.6366C55.7064 2.15183 55.1414 1.94084 54.6891 1.84047C54.2597 1.74517 53.8118 1.72394 53.4246 1.71867C53.0254 1.71323 52.5551 1.72505 52.0586 1.73637C51.5477 1.74801 50.967 1.76044 50.2903 1.76044V5.76044C51.0155 5.76044 51.6345 5.74707 52.1498 5.73533C52.6794 5.72326 53.0617 5.7141 53.3702 5.7183C53.5193 5.72033 53.6289 5.72536 53.7101 5.7321C53.7925 5.73894 53.8244 5.74588 53.8225 5.74547C53.8167 5.74417 53.5818 5.69108 53.3443 5.45123C53.1075 5.21212 53.0572 4.97829 53.0566 4.97558C53.0565 4.97487 53.0633 5.00773 53.0698 5.09093C53.0761 5.17298 53.0806 5.28311 53.082 5.43261C53.085 5.74228 53.0745 6.12324 53.0614 6.65221C53.0487 7.16638 53.0346 7.78288 53.0346 8.50481H57.0346Z" fill="white" mask="url(#path-9-inside-1)"/>
</svg>
