<svg width="93" height="88" viewBox="0 0 93 88" fill="none" xmlns="http://www.w3.org/2000/svg">
<path d="M86.6014 24.0498H44.3946V7.65688H61.661C64.8396 7.65688 67.4165 10.1033 67.4165 13.1212V16.0172L63.0231 11.828L60.299 14.4143L67.9729 21.7001C68.7212 22.4064 69.9298 22.4064 70.678 21.7001L78.352 14.4143L75.6469 11.8278L71.2536 16.0171V13.121C71.2536 8.09129 66.9589 4.0139 61.6612 4.0139H44.3948V2.19258C44.3946 1.18664 43.5358 0.371094 42.4763 0.371094H2.18808C1.12853 0.371094 0.269531 1.18664 0.269531 2.19258V56.8355C0.269531 57.8415 1.12853 58.657 2.18808 58.657H19.4544V66.0885C19.5377 69.0492 22.0903 71.4081 25.2099 71.4071H42.4763V75.9425C38.6036 77.1981 35.744 80.3376 34.9942 84.1572H30.9654V87.7998H77.009V84.157H72.9802C72.2304 80.3375 69.3708 77.1981 65.4981 75.9423V71.4069H86.6014C89.721 71.4079 92.2736 69.0491 92.3568 66.0883V29.3682C92.2736 26.4074 89.721 24.0487 86.6014 24.0498ZM4.10644 4.0139H40.5577V7.65671H4.10644V4.0139ZM4.10644 11.2997H40.5577V47.7283H4.10644V11.2997ZM4.10644 55.014V51.3712H40.5577V55.014H4.10644ZM69.028 84.157H38.9462C39.6176 81.9713 41.6896 78.6927 48.2317 78.6927H53.9872V75.0499H48.2317C47.5603 75.0499 46.9272 75.0499 46.3132 75.0499V71.4069H61.661V75.0497C61.0472 75.0497 60.4141 75.0497 59.7425 75.0497V78.6925C66.2846 78.6927 68.3566 81.9713 69.028 84.157ZM88.5199 66.0883C88.4397 67.0368 87.6039 67.767 86.6014 67.7639H25.2099C24.2076 67.767 23.3716 67.0368 23.2914 66.0883V58.6568H42.4763C43.5358 58.6568 44.3948 57.8413 44.3948 56.8354V27.6926H86.6014C87.6037 27.6895 88.4397 28.4197 88.5199 29.3682V66.0883Z" fill="#5073F0"/>
<path d="M29.5265 31.3354H15.6174V22.2283C15.6174 21.2224 14.7584 20.4068 13.6988 20.4068H7.94336V24.0496H11.7804V33.1569C11.7804 34.1628 12.6395 34.9784 13.699 34.9784H30.9654C31.8517 35.0095 32.6451 34.4598 32.8839 33.6487L36.7208 20.8986L32.8839 19.915L29.5265 31.3354Z" fill="#5073F0"/>
<path d="M17.5361 36.7996H13.6992V40.4424H17.5361V36.7996Z" fill="#5073F0"/>
<path d="M30.9648 36.7996H27.1279V40.4424H30.9648V36.7996Z" fill="#5073F0"/>
<path d="M73.6513 49.5498H59.7424V40.4427C59.7424 39.4367 58.8834 38.6212 57.8238 38.6212H52.0684V42.264H55.9053V51.3711C55.9053 52.377 56.7643 53.1926 57.8238 53.1926H75.0902C75.9765 53.2237 76.7699 52.674 77.0087 51.8629L80.8456 39.113L77.0087 38.1294L73.6513 49.5498Z" fill="#5073F0"/>
<path d="M61.6611 55.0139H57.8242V58.6567H61.6611V55.0139Z" fill="#5073F0"/>
<path d="M75.0908 55.0139H71.2539V58.6567H75.0908V55.0139Z" fill="#5073F0"/>
</svg>
