<svg width="96" height="91" viewBox="0 0 96 91" fill="none" xmlns="http://www.w3.org/2000/svg">
<path d="M89.082 79.6693V29.0152C89.082 27.9791 88.1972 27.1391 87.1059 27.1391H66.9306L71.5742 13.2561L67.8198 12.1305L67.1876 14.0066H65.0929C63.948 10.0072 59.6051 7.64602 55.3925 8.73297C52.6868 9.43105 50.5731 11.4379 49.8378 14.0066H49.2845C48.1396 10.0072 43.7967 7.64602 39.584 8.73297C36.8784 9.43105 34.7646 11.4379 34.0294 14.0066H31.7767V10.2544C31.8428 5.14304 27.5371 0.946135 22.1535 0.874023H17.9445V4.62612H22.1535C25.3545 4.69788 27.891 7.21511 27.8247 10.2544V27.1391H8.06438C6.97305 27.1391 6.08828 27.9791 6.08828 29.0152V79.6693C2.81429 79.6693 0.160156 82.1892 0.160156 85.2975C0.160156 88.4059 2.81429 90.9258 6.08828 90.9258H89.082C92.356 90.9258 95.0101 88.4059 95.0101 85.2975C95.0101 82.1892 92.356 79.6693 89.082 79.6693ZM57.4653 12.1305C58.8688 12.1386 60.1624 12.8527 60.8641 14.0066H54.0666C54.7682 12.8527 56.062 12.1386 57.4653 12.1305ZM41.657 12.1305C43.0605 12.1386 44.3541 12.8527 45.0559 14.0066H38.2583C38.9599 12.8527 40.2535 12.1386 41.657 12.1305ZM31.7769 17.7587H65.9228L60.2713 34.6434H31.7769V17.7587ZM35.7289 47.776C35.7289 48.8122 34.8441 49.6522 33.7528 49.6522C32.6615 49.6522 31.7767 48.8122 31.7767 47.776C31.7767 46.7399 32.6615 45.8999 33.7528 45.8999C34.8441 45.8999 35.7289 46.7399 35.7289 47.776ZM10.0403 30.8913H27.8247V36.5196C27.8247 37.5557 28.7094 38.3957 29.8008 38.3957H31.7769V42.4855C28.7048 43.5601 27.132 46.7958 28.2639 49.7125C28.8641 51.259 30.1481 52.4781 31.7769 53.0478V62.7846H35.7289V53.0666C37.4071 52.4994 38.7278 51.2455 39.3252 49.6522H53.8886C54.9799 52.5827 58.3669 54.1185 61.4538 53.0824C64.5405 52.0463 66.1581 48.8306 65.0668 45.8999C63.9755 42.9692 60.5885 41.4335 57.5016 42.4697C55.8134 43.0364 54.4855 44.2971 53.8886 45.8999H39.3252C38.7278 44.3066 37.4071 43.0527 35.7289 42.4855V38.3957H61.7335C62.6298 38.4346 63.4414 37.8953 63.7096 37.0824L65.6857 30.8913H85.13V79.6693H10.0403V30.8913ZM57.4653 47.776C57.4653 46.7399 58.35 45.8999 59.4414 45.8999C60.5327 45.8999 61.4175 46.7399 61.4175 47.776C61.4175 48.8122 60.5327 49.6522 59.4414 49.6522C58.35 49.6522 57.4653 48.8122 57.4653 47.776ZM89.082 87.1737H6.08828C4.99695 87.1737 4.11218 86.3337 4.11218 85.2975C4.11218 84.2614 4.99695 83.4214 6.08828 83.4214H35.7289V85.2975H59.4414V83.4214H89.082C90.1733 83.4214 91.0581 84.2614 91.0581 85.2975C91.0581 86.3337 90.1733 87.1737 89.082 87.1737Z" fill="#5073F0"/>
<path d="M17.9452 70.289V66.5369H13.9932V70.289C13.9932 73.3973 16.6473 75.9172 19.9213 75.9172H23.8733V72.1651H19.9213C18.83 72.1649 17.9452 71.3251 17.9452 70.289Z" fill="#5073F0"/>
<path d="M77.226 70.289C77.226 71.3251 76.3412 72.1651 75.2499 72.1651H71.2979V75.9172H75.2499C78.5239 75.9172 81.178 73.3973 81.178 70.289V66.5369H77.226V70.289Z" fill="#5073F0"/>
<path d="M17.9452 34.6436H13.9932V38.3957H17.9452V34.6436Z" fill="#5073F0"/>
<path d="M81.1776 34.6436H77.2256V38.3957H81.1776V34.6436Z" fill="#5073F0"/>
<path d="M47.5858 53.4045H43.6338V68.4131H47.5858V53.4045Z" fill="#5073F0"/>
<path d="M61.4168 57.1562H57.4648V75.9171H61.4168V57.1562Z" fill="#5073F0"/>
</svg>
